:FULLY-SPECIFIED
:FORCE-ALL-JOINTS-BE-3DOF
:DEGREES
679
root 5.33761 16.1954 0.923158 15.6854 -22.0627 0.665976
lfemur -35.7912 25.7818 -6.96387
ltibia 102.045 -0 0
lfoot 11.8115 -9.69547 0.409865
ltoes 7.1597 -0 0
rfemur -36.2407 -12.7126 25.4519
rtibia 56.4413 -0 0
rfoot -23.1211 -3.77512 0.374471
rtoes 3.22662 -0 0
lowerback 0.336455 -6.60931 -0.485407
upperback -1.94005 -8.84639 0.3896
thorax -2.03343 -4.40566 0.84317
lowerneck -8.99244 -4.14185 0.373861
upperneck 2.52658 -5.72582 2.96143
head 2.4322 -2.76355 0.603999
lclavicle 1.53064e-14 -6.75868e-15 0
lhumerus 23.376 -62.1803 47.5793
lradius 88.8268 -0 0
lwrist 29.3279 0 0
lhand -14.6167 -1.76551 0.0143761
lfingers 7.12502 -0 0
lthumb 11.5345 27.8962 0.0154215
rclavicle 1.53064e-14 -6.75868e-15 0
rhumerus -49.1436 -10.5023 -40.5734
rradius 77.8997 -0 0
rwrist -18.5252 0 0
rhand -28.0225 -45.8913 -0.0264771
rfingers 7.12502 -0 0
rthumb -1.40769 -75.8673 -0.0253725
680
root 5.32391 16.2651 1.0511 15.3793 -23.3316 0.710507
lfemur -37.3557 25.3974 -3.92006
ltibia 106.137 -0 0
lfoot 12.8771 -10.6328 0.387941
ltoes 8.8892 -0 0
rfemur -34.254 -11.9278 24.6905
rtibia 54.1146 -0 0
rfoot -22.7112 -2.94507 0.435823
rtoes 3.53831 -0 0
lowerback 0.631827 -6.59842 -0.582096
upperback -1.90724 -8.83955 0.19966
thorax -2.18067 -4.39989 0.740691
lowerneck -8.71027 -4.13508 0.354042
upperneck 2.74842 -5.72576 3.11709
head 2.46152 -2.75866 0.661009
lclavicle 1.53064e-14 -6.75868e-15 0
lhumerus 26.6573 -59.8085 42.5038
lradius 89.1796 -0 0
lwrist 29.5928 0 0
lhand -15.06 -2.04367 0.0177378
lfingers 7.12502 -0 0
lthumb 11.1069 27.6401 0.0183823
rclavicle 1.53064e-14 -6.75868e-15 0
rhumerus -48.6225 -10.0114 -38.7608
rradius 80.3076 -0 0
rwrist -18.1113 0 0
rhand -28.1711 -45.4077 -0.0277389
rfingers 7.12502 -0 0
rthumb -1.55119 -75.383 -0.0265459
681
root 5.31064 16.3417 1.18074 15.066 -24.6383 0.767933
lfemur -38.9169 25.0316 -0.840819
ltibia 110.15 -0 0
lfoot 13.8384 -11.5228 0.351765
ltoes 10.7069 -0 0
rfemur -32.2779 -11.1419 23.9368
rtibia 51.7466 -0 0
rfoot -22.2111 -2.1247 0.483688
rtoes 3.8855 -0 0
lowerback 0.937497 -6.57604 -0.697027
upperback -1.87225 -8.81852 0.000346614
thorax -2.33086 -4.3871 0.63909
lowerneck -8.42238 -4.13499 0.329729
upperneck 2.97227 -5.73567 3.2856
head 2.49145 -2.75805 0.722544
lclavicle 1.53064e-14 -6.75868e-15 0
lhumerus 29.3226 -57.264 37.9724
lradius 89.4694 -0 0
lwrist 29.855 0 0
lhand -15.4938 -2.31518 0.0203604
lfingers 7.12502 -0 0
lthumb 10.6884 27.3894 0.0205643
rclavicle 1.53064e-14 -6.75868e-15 0
rhumerus -48.0358 -9.522 -36.9581
rradius 82.7396 -0 0
rwrist -17.673 0 0
rhand -28.3339 -44.9207 -0.0277989
rfingers 7.12502 -0 0
rthumb -1.70843 -74.8951 -0.0265654
682
root 5.29814 16.4255 1.31276 14.7513 -25.9896 0.837304
lfemur -40.4474 24.6821 2.22141
ltibia 114.018 -0 0
lfoot 14.6949 -12.3532 0.305007
ltoes 12.574 -0 0
rfemur -30.3398 -10.3586 23.194
rtibia 49.3784 -0 0
rfoot -21.6196 -1.3364 0.513535
rtoes 4.26496 -0 0
lowerback 1.24813 -6.54109 -0.824688
upperback -1.83595 -8.78183 -0.203757
thorax -2.48187 -4.36662 0.539106
lowerneck -8.1345 -4.14079 0.301476
upperneck 3.192 -5.75425 3.46155
head 2.52074 -2.76128 0.786797
lclavicle 1.53064e-14 -6.75868e-15 0
lhumerus 31.4139 -54.6053 33.9586
lradius 89.6819 -0 0
lwrist 30.1104 0 0
lhand -15.9163 -2.57659 0.022023
lfingers 7.12502 -0 0
lthumb 10.2808 27.1475 0.0217888
rclavicle 1.53064e-14 -6.75868e-15 0
rhumerus -47.385 -9.04631 -35.1814
rradius 85.1561 -0 0
rwrist -17.2168 0 0
rhand -28.5094 -44.4371 -0.0266542
rfingers 7.12502 -0 0
rthumb -1.87791 -74.4103 -0.0254319
683
root 5.28678 16.517 1.44785 14.4413 -27.3924 0.917461
lfemur -41.92 24.3419 5.21415
ltibia 117.675 -0 0
lfoot 15.4463 -13.111 0.251245
ltoes 14.4513 -0 0
rfemur -28.4665 -9.58228 22.4641
rtibia 47.0512 -0 0
rfoot -20.9354 -0.602685 0.521378
rtoes 4.67345 -0 0
lowerback 1.55837 -6.49255 -0.95956
upperback -1.79928 -8.72798 -0.408062
thorax -2.6316 -4.33779 0.441482
lowerneck -7.85237 -4.1517 0.269844
upperneck 3.40149 -5.7801 3.63955
head 2.5481 -2.76786 0.851959
lclavicle 1.53064e-14 -6.75868e-15 0
lhumerus 32.9872 -51.8909 30.423
lradius 89.8025 -0 0
lwrist 30.355 0 0
lhand -16.3252 -2.8245 0.0225693
lfingers 7.12502 -0 0
lthumb 9.88625 26.918 0.0219392
rclavicle 1.53064e-14 -6.75868e-15 0
rhumerus -46.6722 -8.59596 -33.4468
rradius 87.5177 -0 0
rwrist -16.7493 0 0
rhand -28.696 -43.9635 -0.0243698
rfingers 7.12502 -0 0
rthumb -2.05812 -73.9351 -0.0232111
684
root 5.2769 16.6167 1.58668 14.1421 -28.8534 1.00699
lfemur -43.3073 23.9986 8.08492
ltibia 121.055 -0 0
lfoot 16.0916 -13.7836 0.194079
ltoes 16.2999 -0 0
rfemur -26.6848 -8.81837 21.7483
rtibia 44.806 -0 0
rfoot -20.1573 0.0537432 0.503957
rtoes 5.10775 -0 0
lowerback 1.86289 -6.42947 -1.09612
upperback -1.76312 -8.65552 -0.60798
thorax -2.77792 -4.29993 0.346954
lowerneck -7.58175 -4.16697 0.235405
upperneck 3.59463 -5.81177 3.8142
head 2.57228 -2.77735 0.916226
lclavicle 1.53064e-14 -6.75868e-15 0
lhumerus 34.1017 -49.1776 27.3241
lradius 89.8167 -0 0
lwrist 30.5844 0 0
lhand -16.7186 -3.05546 0.0219011
lfingers 7.12502 -0 0
lthumb 9.50668 26.7043 0.0209562
rclavicle 1.53064e-14 -6.75868e-15 0
rhumerus -45.9005 -8.18191 -31.7709
rradius 89.7851 -0 0
rwrist -16.2771 0 0
rhand -28.8921 -43.5064 -0.0210841
rfingers 7.12502 -0 0
rthumb -2.24753 -73.4762 -0.0200393
685
root 5.26886 16.7249 1.72995 13.86 -30.3796 1.10416
lfemur -44.5822 23.6358 10.7812
ltibia 124.093 -0 0
lfoot 16.6299 -14.3577 0.13725
ltoes 18.081 -0 0
rfemur -25.0211 -8.07295 21.0467
rtibia 42.6841 -0 0
rfoot -19.2841 0.61 0.458938
rtoes 5.56462 -0 0
lowerback 2.15633 -6.35101 -1.22885
upperback -1.72841 -8.563 -0.798924
thorax -2.91871 -4.25236 0.256264
lowerneck -7.32836 -4.18584 0.198743
upperneck 3.7653 -5.84769 3.98017
head 2.59201 -2.78924 0.977791
lclavicle 1.53064e-14 -6.75868e-15 0
lhumerus 34.813 -46.5197 24.6256
lradius 89.7101 -0 0
lwrist 30.7947 0 0
lhand -17.0943 -3.26604 0.0199716
lfingers 7.12502 -0 0
lthumb 9.1441 26.5099 0.0188306
rclavicle 1.53064e-14 -6.75868e-15 0
rhumerus -45.0737 -7.81439 -30.1704
rradius 91.9186 -0 0
rwrist -15.8068 0 0
rhand -29.0962 -43.0725 -0.0170132
rfingers 7.12502 -0 0
rthumb -2.44465 -73.0401 -0.0161278
686
root 5.26301 16.8421 1.87834 13.6015 -31.978 1.20687
lfemur -45.718 23.2331 13.2504
ltibia 126.721 -0 0
lfoot 17.0603 -14.8204 0.0847581
ltoes 19.7554 -0 0
rfemur -23.5016 -7.3528 20.3584
rtibia 40.7267 -0 0
rfoot -18.3145 1.04301 0.385113
rtoes 6.04081 -0 0
lowerback 2.43338 -6.25638 -1.35224
upperback -1.69602 -8.44898 -0.976312
thorax -3.05186 -4.19438 0.170152
lowerneck -7.09797 -4.20758 0.160457
upperneck 3.90744 -5.88629 4.1321
head 2.60601 -2.80308 1.03485
lclavicle 1.53064e-14 -6.75868e-15 0
lhumerus 35.1709 -43.9686 22.2993
lradius 89.4682 -0 0
lwrist 30.9818 0 0
lhand -17.4504 -3.45282 0.016777
lfingers 7.12502 -0 0
lthumb 8.80051 26.3384 0.0155957
rclavicle 1.53064e-14 -6.75868e-15 0
rhumerus -44.1961 -7.50279 -28.6624
rradius 93.879 -0 0
rwrist -15.345 0 0
rhand -29.3067 -42.6685 -0.0124534
rfingers 7.12502 -0 0
rthumb -2.64797 -72.6335 -0.0117646
687
root 5.2597 16.9688 2.03253 13.3735 -33.6554 1.3125
lfemur -46.6882 22.7676 15.4399
ltibia 128.875 -0 0
lfoot 17.3814 -15.1583 0.0409962
ltoes 21.2842 -0 0
rfemur -22.1523 -6.66534 19.682
rtibia 38.9747 -0 0
rfoot -17.247 1.32951 0.282605
rtoes 6.53311 -0 0
lowerback 2.68873 -6.14489 -1.46083
upperback -1.66682 -8.31202 -1.13557
thorax -3.17524 -4.12528 0.0893647
lowerneck -6.89631 -4.23146 0.121159
upperneck 4.01496 -5.92592 4.26468
head 2.61304 -2.81838 1.0856
lclavicle 1.53064e-14 -6.75868e-15 0
lhumerus 35.2175 -41.5724 20.3268
lradius 89.0766 -0 0
lwrist 31.1414 0 0
lhand -17.7847 -3.61235 0.0123469
lfingers 7.12502 -0 0
lthumb 8.47791 26.1933 0.0113177
rclavicle 1.53064e-14 -6.75868e-15 0
rhumerus -43.2723 -7.25556 -27.2645
rradius 95.6268 -0 0
rwrist -14.8983 0 0
rhand -29.5222 -42.3009 -0.00778133
rfingers 7.12502 -0 0
rthumb -2.856 -72.2629 -0.00731543
688
root 5.25928 17.1053 2.19321 13.1833 -35.419 1.4178
lfemur -47.466 22.2149 17.2966
ltibia 130.487 -0 0
lfoot 17.5921 -15.3581 0.0108824
ltoes 22.6285 -0 0
rfemur -20.9992 -6.01855 19.0151
rtibia 37.4695 -0 0
rfoot -16.0798 1.44609 0.153084
rtoes 7.03827 -0 0
lowerback 2.91711 -6.01589 -1.54916
upperback -1.64167 -8.1507 -1.27213
thorax -3.28674 -4.04436 0.0146566
lowerneck -6.72915 -4.25678 0.0814727
upperneck 4.0818 -5.96491 4.37261
head 2.61182 -2.83466 1.12824
lclavicle 1.53064e-14 -6.75868e-15 0
lhumerus 34.988 -39.3764 18.6992
lradius 88.5208 -0 0
lwrist 31.2696 0 0
lhand -18.0953 -3.74121 0.00673359
lfingers 7.12502 -0 0
lthumb 8.1783 26.0781 0.00608575
rclavicle 1.53064e-14 -6.75868e-15 0
rhumerus -42.3072 -7.08014 -25.9947
rradius 97.1224 -0 0
rwrist -14.4733 0 0
rhand -29.7409 -41.9765 -0.00345281
rfingers 7.12502 -0 0
rthumb -3.06725 -71.9348 -0.00322213
689
root 5.26211 17.2522 2.36107 13.039 -37.2758 1.51872
lfemur -48.0233 21.5505 18.7672
ltibia 131.493 0 0
lfoot 17.6911 -15.4067 0
ltoes 23.7493 0 0
rfemur -20.0681 -5.42098 18.3553
rtibia 36.2521 0 0
rfoot -14.8107 1.3692 0
rtoes 7.55306 0 0
lowerback 3.11329 -5.86875 -1.61184
upperback -1.62133 -7.9636 -1.38144
thorax -3.38422 -3.95089 -0.0532092
lowerneck -6.60222 -4.28285 0.0420372
upperneck 4.10193 -6.00163 4.45059
head 2.6011 -2.85143 1.16097
lclavicle 3.97569e-16 -9.54166e-15 0
lhumerus 34.5101 -37.4222 17.4175
lradius 87.7863 0 0
lwrist 31.3621 0 0
lhand -18.3799 -3.83596 0
lfingers 7.12502 0 0
lthumb 7.90368 25.9963 0
rclavicle 3.97569e-16 -9.54166e-15 0
rhumerus -41.3058 -6.98297 -24.8715
rradius 98.3265 0 0
rwrist -14.0766 0 0
rhand -29.9615 -41.7017 0
rfingers 7.12502 0 0
rthumb -3.28023 -791.656 0
690
root 5.26935 17.4181 2.53653 12.941 -39.2625 1.61455
lfemur -48.3588 20.7352 19.8804
ltibia 131.915 -0 0
lfoot 17.5965 -15.2316 -0.0158315
ltoes 24.7205 -0 0
rfemur -19.3219 -4.87181 17.6886
rtibia 35.1276 -0 0
rfoot -13.347 1.0791 -0.176229
rtoes 8.06217 -0 0
lowerback 3.28685 -5.69511 -1.66095
upperback -1.60366 -7.74023 -1.47032
thorax -3.47067 -3.83942 -0.114216
lowerneck -6.51167 -4.31096 0.00298236
upperneck 4.07728 -6.03807 4.50563
head 2.58109 -2.86948 1.18589
lclavicle 3.97569e-16 -9.54166e-15 0
lhumerus 33.8368 -35.6486 16.3986
lradius 86.8222 -0 0
lwrist 31.4298 0 0
lhand -18.6322 -3.88918 -0.00678094
lfingers 7.12502 -0 0
lthumb 7.66023 25.9547 -0.00604774
rclavicle 3.97569e-16 -9.54166e-15 0
rhumerus -40.2359 -6.97499 -23.8624
rradius 99.2569 -0 0
rwrist -13.6788 0 0
rhand -30.2193 -41.4922 0.00111151
rfingers 7.12502 -0 0
rthumb -3.52917 -71.4413 0.000924326
691
root 5.28145 17.6089 2.71911 12.8812 -41.3979 1.70744
lfemur -48.5042 19.7534 20.7166
ltibia 131.847 -0 0
lfoot 17.249 -14.7947 -0.0601741
ltoes 25.6413 -0 0
rfemur -18.702 -4.36411 17.0026
rtibia 33.9055 -0 0
rfoot -11.6221 0.586104 -0.369066
rtoes 8.55811 -0 0
lowerback 3.45082 -5.48965 -1.71149
upperback -1.5862 -7.47457 -1.549
thorax -3.55075 -3.70672 -0.169264
lowerneck -6.44803 -4.34289 -0.0363163
upperneck 4.01629 -6.07743 4.54904
head 2.5534 -2.88994 1.20664
lclavicle 3.97569e-16 -9.54166e-15 0
lhumerus 33.0219 -33.9687 15.5376
lradius 85.608 -0 0
lwrist 31.4852 0 0
lhand -18.85 -3.8994 -0.0124354
lfingers 7.12502 -0 0
lthumb 7.45017 25.9542 -0.0111014
rclavicle 3.97569e-16 -9.54166e-15 0
rhumerus -39.0715 -7.05607 -22.9246
rradius 99.9721 -0 0
rwrist -13.2507 0 0
rhand -30.5422 -41.3516 -0.000823987
rfingers 7.12502 -0 0
rthumb -3.84089 -71.2942 -0.00112194
